<svg id="Layer_1" data-name="Layer 1" xmlns="http://www.w3.org/2000/svg" viewBox="0 0 504.12 504.12"><defs><style>.cls-1{fill:#ff7058;}.cls-2{fill:#ffd05b;}.cls-3{fill:#324a5e;}.cls-4{fill:#f9b54c;}.cls-5{fill:#fff;}.cls-6{fill:#84dbff;}.cls-7{fill:#4cdbc4;}.cls-8{fill:#f1543f;}.cls-9{fill:#acb3ba;}</style></defs><title>Cartoes_E_Bancos_Digitais</title><circle class="cls-1" cx="252.06" cy="252.06" r="252.06"/><path class="cls-2" d="M391.88,363.52H120.12a21,21,0,0,1-20.87-20.87V169a21,21,0,0,1,20.87-20.87H392.27A21,21,0,0,1,413.14,169V342.65A21.35,21.35,0,0,1,391.88,363.52Z" transform="translate(-3.94 -3.94)"/><rect class="cls-3" x="95.31" y="179.2" width="313.5" height="47.66"/><rect class="cls-3" x="129.58" y="257.97" width="89.4" height="16.94"/><rect class="cls-2" x="317.05" y="271.75" width="65.77" height="65.77"/><polygon class="cls-4" points="352.49 278.45 352.49 296.96 336.35 296.96 336.35 271.75 332.41 271.75 332.41 305.63 317.05 305.63 317.05 309.56 336.35 309.56 336.35 300.9 356.43 300.9 356.43 282.39 382.82 282.39 382.82 278.45 352.49 278.45"/><polygon class="cls-4" points="361.94 315.47 346.19 315.47 346.19 307.59 342.25 307.59 342.25 322.56 317.05 322.56 317.05 326.5 346.19 326.5 346.19 319.41 359.98 319.41 359.98 337.13 363.91 337.13 363.91 319.41 382.82 319.41 382.82 315.47 363.91 315.47 361.94 315.47"/><polygon class="cls-3" points="387.15 240.64 387.15 263.48 403.69 252.06 387.15 240.64"/><rect class="cls-5" x="116.18" y="325.71" width="25.99" height="12.6"/><rect class="cls-5" x="116.18" y="294.99" width="73.65" height="13.39"/><rect class="cls-5" x="163.84" y="325.71" width="25.99" height="12.6"/><rect class="cls-6" x="211.5" y="329.65" width="25.99" height="7.88"/><rect class="cls-6" x="259.15" y="329.65" width="25.99" height="7.88"/><path class="cls-7" d="M276.09,428.11,83.89,235.91c-8.27-8.27-8.27-21.27,0-29.14L206.77,83.89c8.27-8.27,21.27-8.27,29.14,0l192.2,192.2c8.27,8.27,8.27,21.27,0,29.14L305.23,428.11C297.35,436.38,284.36,436.38,276.09,428.11Z" transform="translate(-3.94 -3.94)"/><rect class="cls-3" x="266.91" y="64.35" width="47.65" height="313.5" transform="translate(-75.12 266.4) rotate(-45)"/><rect class="cls-8" x="177.38" y="155.3" width="16.94" height="102.4" transform="translate(-95.53 187.96) rotate(-45)"/><rect class="cls-5" x="255.36" y="329.76" width="65.77" height="65.77" transform="translate(-175.95 306.1) rotate(-45)"/><polygon class="cls-9" points="304.44 341.86 291.45 354.86 280.02 343.43 297.75 325.32 294.99 322.56 270.97 346.98 260.33 335.95 257.57 338.71 270.97 352.49 277.27 346.19 291.45 360.37 304.44 347.37 322.95 365.88 325.71 363.13 304.44 341.86"/><polygon class="cls-9" points="284.75 374.94 273.72 363.52 279.24 358.01 276.48 355.25 265.85 365.88 248.12 348.16 245.37 350.92 265.85 371.4 270.97 366.28 280.81 376.12 268.21 388.73 270.97 391.48 283.57 378.88 296.96 392.27 299.72 389.51 286.33 376.12 284.75 374.94"/><polygon class="cls-5" points="355.64 339.5 339.5 355.64 359.19 359.19 355.64 339.5"/><rect class="cls-3" x="106.96" y="212.13" width="12.6" height="25.99" transform="translate(-129.95 142.09) rotate(-45)"/><rect class="cls-3" x="144.75" y="184.95" width="11.42" height="73.65" transform="translate(-116.69 167.41) rotate(-45)"/><rect class="cls-3" x="140.94" y="245.87" width="12.6" height="25.99" transform="translate(-143.86 176) rotate(-45)"/><rect class="cls-3" x="174.62" y="279.28" width="12.6" height="25.99" transform="translate(-157.62 209.6) rotate(-45)"/><rect class="cls-3" x="208" y="313.28" width="12.6" height="25.99" transform="translate(-171.89 243.16) rotate(-45)"/></svg>