<svg id="Layer_1" data-name="Layer 1" xmlns="http://www.w3.org/2000/svg" viewBox="0 0 504.12 504.12"><defs><style>.cls-1{fill:#84dbff;}.cls-2{fill:#ffd05b;}.cls-3{fill:#324a5e;}.cls-4{fill:#fff;}.cls-5{fill:#2c9984;}.cls-6{fill:#e6e9ee;}</style></defs><title>controle de gastos</title><circle class="cls-1" cx="252.06" cy="252.06" r="252.06"/><path class="cls-2" d="M172.9,275.3h88.62a15.21,15.21,0,0,1,14.18,9.06h0c3.94,8.27-.39,18.12-9.06,21.27l-35.45,12.6a4.25,4.25,0,0,0-.39,7.88L273.33,347a25.3,25.3,0,0,0,19.3,1.58l89.8-28A23.83,23.83,0,0,1,412,335.16h0a24.08,24.08,0,0,1-14.18,30.72L276.48,412a28.57,28.57,0,0,1-22.06-.39L149.66,367.46Z" transform="translate(-3.94 -3.94)"/><polygon class="cls-3" points="142.97 375.33 94.52 363.13 123.67 247.34 172.11 259.55 142.97 375.33"/><circle class="cls-4" cx="123.67" cy="349.34" r="10.24"/><rect class="cls-5" x="176.44" y="107.52" width="240.25" height="134.3"/><path class="cls-6" d="M394.24,233.94H207.16v-2.76a11.85,11.85,0,0,0-11.82-11.82h-2.76V137.85h2.76A11.85,11.85,0,0,0,207.16,126v-2.76H394.63V126a11.85,11.85,0,0,0,11.82,11.82h2.76v81.53h-2.76a11.85,11.85,0,0,0-11.82,11.82v2.76Zm-181.56-5.51h176a17.56,17.56,0,0,1,14.57-14.57v-70.1a17.56,17.56,0,0,1-14.57-14.57h-176a17.56,17.56,0,0,1-14.57,14.57v70.1A17.56,17.56,0,0,1,212.68,228.43Z" transform="translate(-3.94 -3.94)"/><ellipse class="cls-6" cx="296.57" cy="174.87" rx="36.63" ry="43.32"/><path class="cls-5" d="M298.93,211.1v-5.51c-7.09-.79-13.39-3.94-19.3-8.66l5.51-6.7a25.45,25.45,0,0,0,13.39,6.7V182c-5.91-1.58-10.24-3.15-13-5.51s-3.94-5.51-3.94-10.24a14.3,14.3,0,0,1,4.73-11c3.15-2.76,7.09-4.33,12.21-4.73v-3.94h5.12v3.94a32.4,32.4,0,0,1,16.15,5.91l-4.73,7.09a24,24,0,0,0-11-4.33v14.57h.39c5.91,1.58,10.24,3.15,13,5.51a13.06,13.06,0,0,1,4.33,10.24,13.74,13.74,0,0,1-4.73,11c-3.15,2.76-7.48,4.33-12.6,4.73v5.51h-5.51Zm-5.51-50.41a6.32,6.32,0,0,0-2,4.33c0,1.58.39,3.15,1.58,3.94,1.18,1.18,3.15,2,5.91,2.76V158.33A10.22,10.22,0,0,0,293.42,160.69ZM310,195a5.44,5.44,0,0,0,2.36-4.33,5.38,5.38,0,0,0-1.58-4.33c-1.18-1.18-3.15-2-6.3-3.15v13.78A9.41,9.41,0,0,0,310,195Z" transform="translate(-3.94 -3.94)"/><circle class="cls-6" cx="227.25" cy="174.87" r="9.06"/><circle class="cls-6" cx="366.28" cy="174.87" r="9.06"/></svg>