<svg id="Layer_1" data-name="Layer 1" xmlns="http://www.w3.org/2000/svg" viewBox="0 0 512 512"><defs><style>.cls-1{fill:#324a5e;}.cls-2{fill:#fff;}.cls-3{fill:#7e868e;}.cls-4{fill:#54c0eb;}.cls-5{fill:#ced5e0;}.cls-6{fill:#f1543f;}.cls-7{fill:#2c9984;}.cls-8{fill:#f9b54c;}</style></defs><title>controle burocratico</title><circle class="cls-1" cx="256" cy="256" r="256"/><path class="cls-1" d="M334.4,406.8H121.6a8,8,0,0,1-8-8V129.2a8,8,0,0,1,8-8H334.4a8,8,0,0,1,8,8v270A8,8,0,0,1,334.4,406.8Z"/><rect class="cls-2" x="134.4" y="141.6" width="187.6" height="244.8"/><path class="cls-3" d="M267.2,102.4H242.4c0-8.4-6.4-15.2-14.4-15.2s-14.4,6.8-14.4,15.2H188.8l-11.2,46.8H278Z"/><rect class="cls-4" x="146.8" y="169.6" width="36" height="36"/><rect class="cls-5" x="198.4" y="181.6" width="111.2" height="12"/><rect class="cls-5" x="146.8" y="226" width="36" height="36"/><rect class="cls-6" x="198.4" y="238" width="111.2" height="12"/><rect class="cls-7" x="146.8" y="282" width="36" height="36"/><rect class="cls-5" x="198.4" y="294" width="111.2" height="12"/><rect class="cls-5" x="146.8" y="338.4" width="36" height="36"/><rect class="cls-6" x="198.4" y="350.4" width="111.2" height="12"/><circle class="cls-8" cx="362.4" cy="335.6" r="71.21"/><circle class="cls-2" cx="362.4" cy="335.6" r="55.6"/><polygon class="cls-6" points="389.37 353.94 370.99 335.56 389.23 317.31 380.74 308.83 362.5 327.07 344.39 308.96 335.91 317.45 354.01 335.56 335.77 353.8 344.25 362.29 362.5 344.04 380.88 362.42 389.37 353.94"/></svg>