<svg id="Layer_1" data-name="Layer 1" xmlns="http://www.w3.org/2000/svg" viewBox="0 0 779.9 655.51"><defs><style>.cls-1{font-size:173.39px;letter-spacing:-0.1em;}.cls-1,.cls-4,.cls-7{fill:#c8ccce;}.cls-1,.cls-7{font-family:Rubik-Light, Rubik;}.cls-2{letter-spacing:-0.12em;}.cls-3{letter-spacing:-0.13em;}.cls-5{fill:#e2e2e2;}.cls-6{fill:#efb04b;}.cls-7{font-size:100px;letter-spacing:-0.09em;}</style></defs><title>Logo_Moeda_Inteligente_Escrita</title><text class="cls-1" transform="translate(275.21 401.66)">MOE<tspan class="cls-2" x="298.06" y="0">D</tspan><tspan class="cls-3" x="395.34" y="0">A</tspan></text><path class="cls-4" d="M188.77,495H164.08a24.54,24.54,0,0,1-19.75-9.87l-17.28-23H225.8l-17.28,23A24.54,24.54,0,0,1,188.77,495" transform="translate(-19.91 -10.73)"/><path class="cls-5" d="M110.59,363.34V388h57.6c4.94,0,8.23,3.29,8.23,8.23s-3.29,8.23-8.23,8.23h-57.6v16.46h32.92c4.94,0,8.23,3.29,8.23,8.23s-3.29,8.23-8.23,8.23H110.59v24.69H242.26V437.4h-57.6c-4.94,0-8.23-3.29-8.23-8.23s3.29-8.23,8.23-8.23h57.6V404.48H209.34c-4.94,0-8.23-3.29-8.23-8.23s3.29-8.23,8.23-8.23h32.92V363.34Z" transform="translate(-19.91 -10.73)"/><path class="cls-6" d="M332,153.09C323.72,79,264.47,19.78,190.41,11.55c-4.94,0-9.05-.82-14-.82a79.84,79.84,0,0,0-14,.82C88.38,19.78,29.13,79.85,20.9,153.09A158.57,158.57,0,0,0,69.45,286.39c19.75,18.93,36.21,43.61,41.14,69.95H242.26c4.94-26.33,21.39-51,41.14-69.95A158.56,158.56,0,0,0,332,153.09ZM176.12,288.81c-66.08,0-121.2-55.12-121.2-121.2s55.12-120,121.2-120,120,53.89,120,120S242.19,288.81,176.12,288.81Z" transform="translate(-19.91 -10.73)"/><path class="cls-6" d="M203.8,205.76a9.14,9.14,0,0,1-9.23,9.23h-9.23V176.84h9.23a9.14,9.14,0,0,1,9.23,9.23v19.69Zm-36.91-47.37H156.43a9.14,9.14,0,0,1-9.23-9.23V130.7a9.14,9.14,0,0,1,9.23-9.23h10.46v36.91Zm27.69,0h-9.23V121.47h9.23a9.14,9.14,0,0,1,9.23,9.23c0,12.18,18.46,12.18,18.46,0A27.65,27.65,0,0,0,194.57,103h-9.23V93.78c0-6.09-4.61-9.23-9.23-9.23s-9.23,3.14-9.23,9.23V103H156.43a27.65,27.65,0,0,0-27.69,27.69v18.46a27.65,27.65,0,0,0,27.69,27.69h10.46V215H156.43a9.14,9.14,0,0,1-9.23-9.23c0-12.18-18.46-12.18-18.46,0a27.65,27.65,0,0,0,27.69,27.69h10.46v9.23c0,6.09,4.61,9.23,9.23,9.23s9.23-3.14,9.23-9.23v-9.23h9.23a27.65,27.65,0,0,0,27.69-27.69V186.07a27.65,27.65,0,0,0-27.69-27.69Z" transform="translate(-19.91 -10.73)"/><text class="cls-7" transform="translate(278.21 483.94)">INTELIGENTE</text></svg>