<svg id="Layer_1" data-name="Layer 1" xmlns="http://www.w3.org/2000/svg" viewBox="0 0 313.03 484.27"><defs><style>.cls-1{fill:#c8ccce;}.cls-2{fill:#e2e2e2;}.cls-3{fill:#efb04b;}</style></defs><title>Logo_Moeda_Inteligente</title><path class="cls-1" d="M263.77,496H239.08a24.54,24.54,0,0,1-19.75-9.87l-17.28-23H300.8l-17.28,23A24.54,24.54,0,0,1,263.77,496" transform="translate(-94.91 -11.73)"/><path class="cls-2" d="M185.59,364.34V389h57.6c4.94,0,8.23,3.29,8.23,8.23s-3.29,8.23-8.23,8.23h-57.6v16.46h32.92c4.94,0,8.23,3.29,8.23,8.23s-3.29,8.23-8.23,8.23H185.59v24.69H317.26V438.4h-57.6c-4.94,0-8.23-3.29-8.23-8.23s3.29-8.23,8.23-8.23h57.6V405.48H284.34c-4.94,0-8.23-3.29-8.23-8.23s3.29-8.23,8.23-8.23h32.92V364.34Z" transform="translate(-94.91 -11.73)"/><path class="cls-3" d="M407,154.09C398.72,80,339.47,20.78,265.41,12.55c-4.94,0-9.05-.82-14-.82a79.84,79.84,0,0,0-14,.82C163.38,20.78,104.13,80.85,95.9,154.09a158.57,158.57,0,0,0,48.55,133.31c19.75,18.93,36.21,43.61,41.14,69.95H317.26c4.94-26.33,21.39-51,41.14-69.95A158.56,158.56,0,0,0,407,154.09ZM251.12,289.81c-66.08,0-121.2-55.12-121.2-121.2s55.12-120,121.2-120,120,53.89,120,120S317.19,289.81,251.12,289.81Z" transform="translate(-94.91 -11.73)"/><path class="cls-3" d="M278.8,206.76a9.14,9.14,0,0,1-9.23,9.23h-9.23V177.84h9.23a9.14,9.14,0,0,1,9.23,9.23v19.69Zm-36.91-47.37H231.43a9.14,9.14,0,0,1-9.23-9.23V131.7a9.14,9.14,0,0,1,9.23-9.23h10.46v36.91Zm27.69,0h-9.23V122.47h9.23a9.14,9.14,0,0,1,9.23,9.23c0,12.18,18.46,12.18,18.46,0A27.65,27.65,0,0,0,269.57,104h-9.23V94.78c0-6.09-4.61-9.23-9.23-9.23s-9.23,3.14-9.23,9.23V104H231.43a27.65,27.65,0,0,0-27.69,27.69v18.46a27.65,27.65,0,0,0,27.69,27.69h10.46V216H231.43a9.14,9.14,0,0,1-9.23-9.23c0-12.18-18.46-12.18-18.46,0a27.65,27.65,0,0,0,27.69,27.69h10.46v9.23c0,6.09,4.61,9.23,9.23,9.23s9.23-3.14,9.23-9.23v-9.23h9.23a27.65,27.65,0,0,0,27.69-27.69V187.07a27.65,27.65,0,0,0-27.69-27.69Z" transform="translate(-94.91 -11.73)"/></svg>